<svg width="708.933" height="75.001" viewBox="0 0 708.933 75.001" xmlns="http://www.w3.org/2000/svg"><g id="svgGroup" stroke-linecap="round" fill-rule="evenodd" font-size="9pt" stroke="#000" stroke-width="0.25mm" fill="#d49a0b" style="stroke:#000;stroke-width:0.25mm;fill:#d49a0b"><path d="M 430.3 74 L 418.6 74 L 430.2 1 L 441.9 1 L 439 19 L 437.1 29.5 L 440.1 29.5 L 436.7 32.2 A 19.486 19.486 0 0 1 438.232 27.094 A 15.106 15.106 0 0 1 442.35 21.75 Q 446.9 18 453.7 18 A 20.112 20.112 0 0 1 458.527 18.544 A 12.935 12.935 0 0 1 465.95 23.3 A 14.094 14.094 0 0 1 468.556 29.248 Q 469.282 32.958 468.5 37.7 L 462.8 74 L 451.1 74 L 456.7 38.9 A 18.22 18.22 0 0 0 456.867 37.44 Q 457.007 35.498 456.651 33.93 A 7.451 7.451 0 0 0 455.2 30.85 A 7.263 7.263 0 0 0 451.469 28.435 Q 449.975 28 448.1 28 A 13.153 13.153 0 0 0 444.063 28.595 A 10.911 10.911 0 0 0 439.95 31 A 12.504 12.504 0 0 0 436.862 35.548 Q 436.157 37.277 435.806 39.367 A 21.956 21.956 0 0 0 435.8 39.4 L 430.3 74 Z M 610.6 74 L 598.9 74 L 610.5 1 L 622.2 1 L 615.8 40.9 L 624.2 40.9 L 641.7 19 L 655.1 19 L 633.7 46 L 646.7 74 L 633.7 74 L 623.3 50.8 L 614.3 50.8 L 610.6 74 Z M 361.4 53.6 L 366.5 21.4 A 28.326 28.326 0 0 1 368.513 14.545 A 23.932 23.932 0 0 1 371.15 10 Q 374.7 5.2 380.25 2.6 A 27.606 27.606 0 0 1 389.13 0.184 A 33.994 33.994 0 0 1 392.7 0 Q 398.47 0 402.609 1.801 A 16.839 16.839 0 0 1 404.3 2.65 Q 408.9 5.3 411 10.1 A 16.516 16.516 0 0 1 412.281 15.122 Q 412.51 17.427 412.2 20.019 A 28.686 28.686 0 0 1 412 21.4 L 400.4 21.4 A 18.425 18.425 0 0 0 400.589 19.911 Q 400.949 15.612 398.867 13.171 A 6.76 6.76 0 0 0 398.85 13.15 Q 396.801 10.767 392.76 10.377 A 17.277 17.277 0 0 0 391.1 10.3 A 16.144 16.144 0 0 0 387.178 10.753 A 11.767 11.767 0 0 0 382.4 13.15 A 11.649 11.649 0 0 0 379.098 17.779 A 16.986 16.986 0 0 0 378.1 21.4 L 373.1 53.6 A 17.376 17.376 0 0 0 372.909 55.105 Q 372.567 59.326 374.7 61.8 Q 377.2 64.7 382.5 64.7 A 15.274 15.274 0 0 0 386.42 64.222 A 11.449 11.449 0 0 0 391.05 61.8 A 12.059 12.059 0 0 0 394.392 56.961 A 17.168 17.168 0 0 0 395.3 53.6 L 407 53.6 A 25.931 25.931 0 0 1 404.396 61.668 A 23.915 23.915 0 0 1 402.4 64.85 Q 398.8 69.7 393.3 72.35 A 26.639 26.639 0 0 1 385.029 74.742 A 33.603 33.603 0 0 1 380.8 75 Q 373.9 75 369.15 72.4 Q 364.4 69.8 362.4 64.95 Q 360.4 60.1 361.4 53.6 Z M 82.4 75 L 78.2 75 A 32.255 32.255 0 0 1 72.817 74.58 Q 69.923 74.09 67.615 73.025 A 14.906 14.906 0 0 1 64 70.7 A 12.109 12.109 0 0 1 59.729 61.832 Q 59.676 60.711 59.789 59.51 A 18.551 18.551 0 0 1 59.8 59.4 L 71.5 59.4 Q 71.412 61.778 73.107 63.341 A 6.316 6.316 0 0 0 73.6 63.75 Q 75.8 65.4 79.7 65.4 L 84 65.4 Q 87.253 65.4 89.542 64.505 A 8.811 8.811 0 0 0 91.5 63.45 A 7.93 7.93 0 0 0 93.772 60.985 A 7.696 7.696 0 0 0 94.7 58.3 Q 95.2 55.3 93.35 53.4 Q 91.5 51.5 87.3 50.9 L 80.5 49.9 A 42.56 42.56 0 0 1 75.949 48.991 Q 70.645 47.602 67.95 45.05 A 8.968 8.968 0 0 1 65.393 40.482 Q 64.758 37.796 65.3 34.2 A 19.787 19.787 0 0 1 67.271 28.027 A 16.802 16.802 0 0 1 72.25 22.25 A 20.004 20.004 0 0 1 78.673 19.165 Q 82.718 18 87.9 18 L 91.7 18 Q 97.732 18 101.835 19.861 A 14.345 14.345 0 0 1 105.3 22.05 A 11.619 11.619 0 0 1 109.442 30.51 Q 109.508 31.637 109.404 32.852 A 18.434 18.434 0 0 1 109.4 32.9 L 97.8 32.9 Q 97.8 30.6 95.85 29.1 Q 93.9 27.6 90.2 27.6 L 86.4 27.6 Q 83.562 27.6 81.579 28.276 A 7.649 7.649 0 0 0 79.55 29.3 A 6.874 6.874 0 0 0 76.901 33.237 A 9.372 9.372 0 0 0 76.7 34.2 A 9.331 9.331 0 0 0 76.626 34.95 Q 76.569 35.975 76.773 36.808 A 4.064 4.064 0 0 0 77.75 38.65 Q 79.024 40.012 82.189 40.641 A 21.345 21.345 0 0 0 83.1 40.8 L 90.1 41.9 A 44.319 44.319 0 0 1 94.908 42.825 Q 100.511 44.255 103.35 46.95 A 9.67 9.67 0 0 1 106.167 52.179 Q 106.695 54.77 106.2 58.1 A 20.714 20.714 0 0 1 104.057 64.621 A 17.786 17.786 0 0 1 98.9 70.55 A 20.717 20.717 0 0 1 92.302 73.74 Q 89.471 74.567 86.091 74.851 A 44.058 44.058 0 0 1 82.4 75 Z M 41.2 74 L 0 74 L 1.6 63.7 L 16.4 63.7 L 24.7 11.3 L 9.9 11.3 L 11.6 1 L 52.8 1 L 51.2 11.3 L 36.4 11.3 L 28.1 63.7 L 42.9 63.7 L 41.2 74 Z M 241.4 53.6 L 243.6 39.4 A 28.326 28.326 0 0 1 245.613 32.545 A 23.932 23.932 0 0 1 248.25 28 Q 251.8 23.2 257.35 20.6 A 27.437 27.437 0 0 1 265.667 18.254 A 34.359 34.359 0 0 1 269.9 18 A 30.852 30.852 0 0 1 275.739 18.518 Q 279.151 19.176 281.797 20.672 A 15.722 15.722 0 0 1 285.25 23.3 Q 290.273 28.371 289.483 36.919 A 27.83 27.83 0 0 1 289.4 37.7 L 277.8 37.7 A 13.624 13.624 0 0 0 277.852 36.733 Q 277.879 35.237 277.544 33.985 A 7.059 7.059 0 0 0 275.65 30.7 Q 273.48 28.573 269.607 28.256 A 17.265 17.265 0 0 0 268.2 28.2 A 15.842 15.842 0 0 0 264.357 28.643 A 11.469 11.469 0 0 0 259.55 31.1 A 11.919 11.919 0 0 0 256.32 35.702 A 17.327 17.327 0 0 0 255.3 39.4 L 253.1 53.6 Q 252.596 56.569 253.143 58.8 A 7.491 7.491 0 0 0 254.65 61.85 A 7.594 7.594 0 0 0 258.182 64.195 Q 259.459 64.621 261.026 64.747 A 17.092 17.092 0 0 0 262.4 64.8 A 15.863 15.863 0 0 0 266.25 64.355 A 11.885 11.885 0 0 0 270.6 62.3 A 11.6 11.6 0 0 0 274.534 56.853 A 15.181 15.181 0 0 0 275 55.3 L 286.6 55.3 A 24.679 24.679 0 0 1 283.305 63.786 A 22.58 22.58 0 0 1 277.85 69.7 Q 270.9 75 260.8 75 A 31.193 31.193 0 0 1 255.682 74.604 Q 252.836 74.13 250.489 73.09 A 17.606 17.606 0 0 1 249.1 72.4 Q 244.4 69.8 242.4 64.95 Q 240.4 60.1 241.4 53.6 Z M 541.4 53.6 L 543.6 39.4 A 28.326 28.326 0 0 1 545.613 32.545 A 23.932 23.932 0 0 1 548.25 28 Q 551.8 23.2 557.35 20.6 A 27.437 27.437 0 0 1 565.667 18.254 A 34.359 34.359 0 0 1 569.9 18 A 30.852 30.852 0 0 1 575.739 18.518 Q 579.151 19.176 581.797 20.672 A 15.722 15.722 0 0 1 585.25 23.3 Q 590.273 28.371 589.483 36.919 A 27.83 27.83 0 0 1 589.4 37.7 L 577.8 37.7 A 13.624 13.624 0 0 0 577.852 36.733 Q 577.879 35.237 577.544 33.985 A 7.059 7.059 0 0 0 575.65 30.7 Q 573.48 28.573 569.607 28.256 A 17.265 17.265 0 0 0 568.2 28.2 A 15.842 15.842 0 0 0 564.357 28.643 A 11.469 11.469 0 0 0 559.55 31.1 A 11.919 11.919 0 0 0 556.32 35.702 A 17.327 17.327 0 0 0 555.3 39.4 L 553.1 53.6 Q 552.596 56.569 553.143 58.8 A 7.491 7.491 0 0 0 554.65 61.85 A 7.594 7.594 0 0 0 558.182 64.195 Q 559.459 64.621 561.026 64.747 A 17.092 17.092 0 0 0 562.4 64.8 A 15.863 15.863 0 0 0 566.25 64.355 A 11.885 11.885 0 0 0 570.6 62.3 A 11.6 11.6 0 0 0 574.534 56.853 A 15.181 15.181 0 0 0 575 55.3 L 586.6 55.3 A 24.679 24.679 0 0 1 583.305 63.786 A 22.58 22.58 0 0 1 577.85 69.7 Q 570.9 75 560.8 75 A 31.193 31.193 0 0 1 555.682 74.604 Q 552.836 74.13 550.489 73.09 A 17.606 17.606 0 0 1 549.1 72.4 Q 544.4 69.8 542.4 64.95 Q 540.4 60.1 541.4 53.6 Z M 121.4 54.1 L 123.8 38.9 A 32.096 32.096 0 0 1 125.395 32.666 A 25.54 25.54 0 0 1 127.8 27.8 A 22.569 22.569 0 0 1 132.239 22.661 A 20.231 20.231 0 0 1 135.25 20.55 A 19.41 19.41 0 0 1 144.178 18.023 A 23.113 23.113 0 0 1 145.2 18 Q 152 18 155.4 21.8 Q 158.51 25.277 157.938 31.096 A 21.238 21.238 0 0 1 157.8 32.2 L 155.6 29.5 L 158.3 29.5 L 159.7 19 L 171.3 19 L 162.6 74 L 151.2 74 L 152.9 63.5 L 150.3 63.5 L 153.3 60.8 A 18.633 18.633 0 0 1 151.585 66.186 A 15.38 15.38 0 0 1 147.55 71.2 A 16.721 16.721 0 0 1 138.873 74.831 A 22.122 22.122 0 0 1 136.1 75 A 18.828 18.828 0 0 1 131.166 74.392 A 12.873 12.873 0 0 1 123.85 69.35 Q 120.302 64.4 121.09 56.419 A 35.094 35.094 0 0 1 121.4 54.1 Z M 181.4 54.1 L 183.8 38.9 A 32.096 32.096 0 0 1 185.395 32.666 A 25.54 25.54 0 0 1 187.8 27.8 A 22.569 22.569 0 0 1 192.239 22.661 A 20.231 20.231 0 0 1 195.25 20.55 A 19.41 19.41 0 0 1 204.178 18.023 A 23.113 23.113 0 0 1 205.2 18 Q 212 18 215.4 21.8 Q 218.51 25.277 217.938 31.096 A 21.238 21.238 0 0 1 217.8 32.2 L 215.6 29.5 L 218.3 29.5 L 219.7 19 L 231.3 19 L 222.6 74 L 211.2 74 L 212.9 63.5 L 210.3 63.5 L 213.3 60.8 A 18.633 18.633 0 0 1 211.585 66.186 A 15.38 15.38 0 0 1 207.55 71.2 A 16.721 16.721 0 0 1 198.873 74.831 A 22.122 22.122 0 0 1 196.1 75 A 18.828 18.828 0 0 1 191.166 74.392 A 12.873 12.873 0 0 1 183.85 69.35 Q 180.302 64.4 181.09 56.419 A 35.094 35.094 0 0 1 181.4 54.1 Z M 481.4 54.1 L 483.8 38.9 A 32.096 32.096 0 0 1 485.395 32.666 A 25.54 25.54 0 0 1 487.8 27.8 A 22.569 22.569 0 0 1 492.239 22.661 A 20.231 20.231 0 0 1 495.25 20.55 A 19.41 19.41 0 0 1 504.178 18.023 A 23.113 23.113 0 0 1 505.2 18 Q 512 18 515.4 21.8 Q 518.51 25.277 517.938 31.096 A 21.238 21.238 0 0 1 517.8 32.2 L 515.6 29.5 L 518.3 29.5 L 519.7 19 L 531.3 19 L 522.6 74 L 511.2 74 L 512.9 63.5 L 510.3 63.5 L 513.3 60.8 A 18.633 18.633 0 0 1 511.585 66.186 A 15.38 15.38 0 0 1 507.55 71.2 A 16.721 16.721 0 0 1 498.873 74.831 A 22.122 22.122 0 0 1 496.1 75 A 18.828 18.828 0 0 1 491.166 74.392 A 12.873 12.873 0 0 1 483.85 69.35 Q 480.302 64.4 481.09 56.419 A 35.094 35.094 0 0 1 481.4 54.1 Z M 661.4 53.6 L 663.6 39.4 A 28.818 28.818 0 0 1 665.578 32.589 A 24.147 24.147 0 0 1 668.2 28 Q 671.7 23.2 677.15 20.6 A 26.582 26.582 0 0 1 685.329 18.254 A 33.342 33.342 0 0 1 689.5 18 Q 695.133 18 699.179 19.684 A 16.683 16.683 0 0 1 701.05 20.6 Q 705.6 23.2 707.6 28 A 17.282 17.282 0 0 1 708.79 32.662 Q 709.084 35.172 708.776 38.043 A 31.376 31.376 0 0 1 708.6 39.4 L 706.3 53.6 A 26.92 26.92 0 0 1 704.074 61.038 A 23.816 23.816 0 0 1 701.75 64.95 Q 698.2 69.8 692.8 72.4 A 26.027 26.027 0 0 1 685.074 74.686 A 33.632 33.632 0 0 1 680.4 75 Q 673.5 75 668.9 72.4 Q 664.3 69.8 662.35 64.95 A 17.917 17.917 0 0 1 661.169 60.028 Q 660.87 57.046 661.4 53.6 Z M 694.6 53.6 L 696.8 39.4 A 19.468 19.468 0 0 0 697.024 37.818 Q 697.422 33.755 695.698 31.371 A 6.389 6.389 0 0 0 695.45 31.05 Q 693.509 28.696 689.556 28.287 A 17.047 17.047 0 0 0 687.8 28.2 A 14.937 14.937 0 0 0 684.03 28.653 A 11.065 11.065 0 0 0 679.45 31.05 Q 676.2 33.9 675.3 39.4 L 673.1 53.6 Q 672.219 58.887 674.453 61.778 A 6.793 6.793 0 0 0 674.55 61.9 A 7.265 7.265 0 0 0 677.973 64.205 Q 679.19 64.614 680.684 64.742 A 16.604 16.604 0 0 0 682.1 64.8 Q 687.3 64.8 690.55 61.9 A 11.608 11.608 0 0 0 693.594 57.455 Q 694.286 55.72 694.6 53.6 Z M 154.2 53.6 L 156.4 39.4 A 18.18 18.18 0 0 0 156.6 37.826 Q 156.767 35.763 156.369 34.1 A 7.706 7.706 0 0 0 154.95 31.1 A 7.467 7.467 0 0 0 150.893 28.488 Q 149.64 28.149 148.135 28.106 A 15.456 15.456 0 0 0 147.7 28.1 A 14.343 14.343 0 0 0 144.03 28.546 A 10.509 10.509 0 0 0 139.45 31.05 A 12.576 12.576 0 0 0 136.587 35.144 Q 135.738 37.038 135.3 39.4 L 133.1 53.6 A 19.293 19.293 0 0 0 132.902 55.159 Q 132.549 59.372 134.438 61.869 A 6.944 6.944 0 0 0 134.5 61.95 Q 136.54 64.567 140.782 64.863 A 16.07 16.07 0 0 0 141.9 64.9 A 13.153 13.153 0 0 0 145.937 64.305 A 10.911 10.911 0 0 0 150.05 61.9 Q 153.3 58.9 154.2 53.6 Z M 214.2 53.6 L 216.4 39.4 A 18.18 18.18 0 0 0 216.6 37.826 Q 216.767 35.763 216.369 34.1 A 7.706 7.706 0 0 0 214.95 31.1 A 7.467 7.467 0 0 0 210.893 28.488 Q 209.64 28.149 208.135 28.106 A 15.456 15.456 0 0 0 207.7 28.1 A 14.343 14.343 0 0 0 204.03 28.546 A 10.509 10.509 0 0 0 199.45 31.05 A 12.576 12.576 0 0 0 196.587 35.144 Q 195.738 37.038 195.3 39.4 L 193.1 53.6 A 19.293 19.293 0 0 0 192.902 55.159 Q 192.549 59.372 194.438 61.869 A 6.944 6.944 0 0 0 194.5 61.95 Q 196.54 64.567 200.782 64.863 A 16.07 16.07 0 0 0 201.9 64.9 A 13.153 13.153 0 0 0 205.937 64.305 A 10.911 10.911 0 0 0 210.05 61.9 Q 213.3 58.9 214.2 53.6 Z M 514.2 53.6 L 516.4 39.4 A 18.18 18.18 0 0 0 516.6 37.826 Q 516.767 35.763 516.369 34.1 A 7.706 7.706 0 0 0 514.95 31.1 A 7.467 7.467 0 0 0 510.893 28.488 Q 509.64 28.149 508.135 28.106 A 15.456 15.456 0 0 0 507.7 28.1 A 14.343 14.343 0 0 0 504.03 28.546 A 10.509 10.509 0 0 0 499.45 31.05 A 12.576 12.576 0 0 0 496.587 35.144 Q 495.738 37.038 495.3 39.4 L 493.1 53.6 A 19.293 19.293 0 0 0 492.902 55.159 Q 492.549 59.372 494.438 61.869 A 6.944 6.944 0 0 0 494.5 61.95 Q 496.54 64.567 500.782 64.863 A 16.07 16.07 0 0 0 501.9 64.9 A 13.153 13.153 0 0 0 505.937 64.305 A 10.911 10.911 0 0 0 510.05 61.9 Q 513.3 58.9 514.2 53.6 Z" vector-effect="non-scaling-stroke"/></g></svg>
